<svg xmlns="http://www.w3.org/2000/svg" viewBox="0 0 512 512">
  <defs>
    <linearGradient id="primary-gradient" x1="0%" y1="0%" x2="100%" y2="100%">
      <stop offset="0%" stop-color="#06b6d4" />
      <stop offset="50%" stop-color="#3b82f6" />
      <stop offset="100%" stop-color="#8b5cf6" />
    </linearGradient>
  </defs>
  <!-- Solid white background so the hollow top and right faces appear white even on dark browser tabs -->
  <rect width="512" height="512" fill="#ffffff" rx="100" />
  
  <!-- Exact FontAwesome 6.4.0 Free fa-cube path with the primary gradient -->
  <!-- Scaled slightly down to have a nice margin inside the white rounded background -->
  <g transform="translate(51.2, 51.2) scale(0.8)">
    <path fill="url(#primary-gradient)" d="M234.5 5.7c13.9-5 29.1-5 43.1 0l192 68.6C495 83.4 512 107.5 512 134.6V377.4c0 27-17 51.2-42.5 60.3l-192 68.6c-13.9 5-29.1 5-43.1 0l-192-68.6C17 428.6 0 404.5 0 377.4V134.6c0-27 17-51.2 42.5-60.3l192-68.6zM256 66L82.3 128 256 190l173.7-62L256 66zm32 368.6l160-57.1v-188L288 246.6v188z"/>
  </g>
</svg>
