<svg xmlns="http://www.w3.org/2000/svg" viewBox="0 0 512 512">
  <defs>
    <linearGradient id="primary-gradient" x1="0%" y1="0%" x2="100%" y2="100%">
      <stop offset="0%" stop-color="#06b6d4" />
      <stop offset="50%" stop-color="#3b82f6" />
      <stop offset="100%" stop-color="#8b5cf6" />
    </linearGradient>
  </defs>
  <!-- White background so the cube's cutouts appear white even on dark browser tabs -->
  <rect width="512" height="512" fill="#ffffff" rx="120" />
  <!-- Centered fa-cube path -->
  <g transform="translate(32, 40) scale(0.85)">
    <path fill="url(#primary-gradient)" d="M210.7 4.9C221.7-1.6 235-1.6 246 4.9L422 108.9c11 6.5 17.7 18.2 17.7 30.9v208.1c0 12.7-6.7 24.5-17.7 30.9L246 482.8c-11 6.5-24.3 6.5-35.3 0L34 378.8C23 372.4 16.3 360.6 16.3 347.9V139.8c0-12.7 6.7-24.5 17.7-30.9L210.7 4.9zM224 45V158l96 55 102-59L224 45zM16 169l102 59-96 55v119L16 288V169zm118 59l96-55v119L134 347V228zm212 119V228l-96 55v119l96-55z"/>
  </g>
</svg>
